<svg width="429.00000000000006" height="60.36323807250428" viewBox="0 0 369.7027027027027 52.01970223611075" class="looka-1j8o68f">
    <defs id="SvgjsDefs1011"></defs>
    <g id="SvgjsG1012" featurekey="PG4fjM-0" transform="matrix(0.6393254278335265,0,0,0.6393254278335265,-8.317623962444157,-5.5131959168395195)" fill="#232931">
        <g xmlns="http://www.w3.org/2000/svg">
            <path d="M41.77,39.39c1.02-5.34,4.88-10.69,10.79-14.1c5.91-3.41,12.47-4.08,17.6-2.29c0.31,0.11,0.52-0.31,0.25-0.49   c-4.55-3.24-10.42-4.3-15.89-2.72c-0.68,1.35-1.74,2.53-3.15,3.34c-1.42,0.82-2.98,1.15-4.5,1.06c-4.15,3.95-6.19,9.59-5.66,15.18   C41.25,39.69,41.71,39.71,41.77,39.39z"></path>
            <ellipse transform="matrix(0.2588 -0.9659 0.9659 0.2588 19.4794 57.7375)" cx="47.36" cy="16.18" rx="6.17" ry="6.17"></ellipse>
            <circle cx="53.63" cy="83.82" r="6.17"></circle>
            <path d="M59.22,60.61c-1.02,5.34-4.88,10.69-10.79,14.1c-5.91,3.41-12.47,4.08-17.6,2.29c-0.31-0.11-0.52,0.31-0.25,0.49   c4.55,3.24,10.42,4.3,15.89,2.72c0.68-1.35,1.74-2.53,3.15-3.34c1.42-0.82,2.98-1.15,4.5-1.06c4.15-3.95,6.19-9.59,5.66-15.18   C59.74,60.31,59.28,60.29,59.22,60.61z"></path>
            <path d="M36.18,53.37c0.29,0.13,0.55-0.25,0.3-0.46c-4.11-3.55-6.81-9.57-6.81-16.39c0-6.82,2.7-12.84,6.81-16.39   c0.25-0.21-0.01-0.6-0.3-0.46c-5.08,2.32-8.93,6.87-10.29,12.4c0.83,1.26,1.32,2.77,1.32,4.4c0,1.64-0.49,3.16-1.34,4.43   C27.22,46.45,31.08,51.03,36.18,53.37z"></path>
            <circle cx="19.18" cy="36.45" r="6.17"></circle>
            <circle cx="80.82" cy="63.8" r="6.17"></circle>
            <path d="M63.82,46.88c-0.29-0.13-0.55,0.25-0.3,0.46c4.11,3.55,6.81,9.57,6.81,16.39c0,6.82-2.7,12.84-6.81,16.39   c-0.24,0.21,0.01,0.6,0.3,0.46c5.08-2.32,8.93-6.87,10.29-12.4c-0.83-1.26-1.32-2.77-1.32-4.4c0-1.64,0.49-3.16,1.34-4.43   C72.78,53.8,68.92,49.21,63.82,46.88z"></path>
            <path d="M45.35,63.35c0.26-0.19,0.05-0.6-0.25-0.49c-5.13,1.79-11.69,1.12-17.6-2.29c-5.91-3.41-9.77-8.76-10.79-14.1   c-0.06-0.32-0.52-0.29-0.55,0.03c-0.53,5.56,1.49,11.17,5.59,15.12c1.51-0.09,3.06,0.25,4.46,1.06c1.42,0.82,2.49,2.01,3.17,3.37   C34.87,67.66,40.77,66.61,45.35,63.35z"></path>
            <circle cx="22.19" cy="69.62" r="6.17"></circle>
            <circle cx="78.55" cy="30.5" r="6.17"></circle>
            <path d="M84.04,53.66c0.06,0.32,0.52,0.29,0.55-0.03c0.53-5.56-1.49-11.17-5.59-15.12c-1.51,0.09-3.06-0.25-4.46-1.06   c-1.42-0.82-2.49-2.01-3.17-3.37c-5.5-1.62-11.4-0.57-15.97,2.69c-0.26,0.19-0.05,0.6,0.25,0.49c5.13-1.79,11.69-1.12,17.6,2.29   C79.16,42.97,83.02,48.32,84.04,53.66z"></path>
        </g>
    </g>
    <g id="SvgjsG1013" featurekey="jxYttZ-0" transform="matrix(1.7054847753931537,0,0,1.7054847753931537,66.99999918676149,4.472576123034232)" fill="#232931">
        <path d="M11.5 5 l0 1.84 l-4.64 0 l0 13.16 l-2.22 0 l0 -13.16 l-4.64 0 l0 -1.84 l11.5 0 z M22.02 15.08 l0 0.74 l-7.78 0 c0 1.82 1.74 2.7 3.02 2.7 c0.94 0 1.98 -0.5 2.54 -1.3 l1.42 1.28 c-0.66 0.9 -1.74 1.7 -3.96 1.7 c-3.2 0 -5.16 -2.18 -5.16 -5.12 s1.9 -5.14 4.96 -5.14 s4.46 1.7 4.88 4.18 c0.06 0.32 0.08 0.64 0.08 0.96 z M14.28 14.120000000000001 l5.58 0 c0 -1.6 -1.28 -2.48 -2.8 -2.48 s-2.78 1.02 -2.78 2.48 z M28.240000000000002 9.92 c2.84 0 3.98 1.72 3.98 3.18 l0 6.9 l-2.06 0 l0 -1.08 c-0.72 0.98 -2 1.26 -2.8 1.26 c-2.26 0 -3.74 -1.32 -3.74 -3.08 c0 -2.46 1.84 -3.34 3.74 -3.34 l2.8 0 l0 -0.66 c0 -0.62 -0.24 -1.48 -1.92 -1.48 c-0.94 0 -1.8 0.5 -2.36 1.28 l-1.42 -1.28 c0.94 -1.04 2.28 -1.7 3.78 -1.7 z M30.16 16.92 l0 -1.48 l-2.52 0 c-1.22 0 -2.08 0.62 -1.94 1.74 c0.12 0.94 0.88 1.32 1.94 1.32 c1.9 0 2.52 -0.9 2.52 -1.58 z M43.58 14.3 l0 5.7 l-2.08 0 l0.02 -0.08 l0 -5.42 c0 -2 -0.52 -2.88 -2.22 -2.88 c-1.92 0 -2.6 1.34 -2.6 3.08 l0 5.3 l-2.06 0 l0 -9.88 l2.06 0 l0 1.6 c0.28 -0.88 1.42 -1.68 2.6 -1.76 c1.94 -0.14 3.32 0.5 3.94 2.1 c0.42 -1.36 1.76 -2.02 2.92 -2.1 c2.68 -0.2 4.28 1.1 4.28 4.34 l0 5.7 l-2.06 0 l0 -5.5 c0 -2 -0.52 -2.88 -2.22 -2.88 c-1.72 0 -2.44 1.08 -2.58 2.68 z M65.03999999999999 5 l6.16 15 l-2.4 0 l-1.5 -3.92 l-5.9 0 l-1.48 3.92 l-2.4 0 l6.16 -15 l1.36 0 z M62.099999999999994 14.24 l4.5 0 l-2.24 -5.92 z M79.53999999999999 16.16 c0.04 0.12 0.38 1.1 -0.04 2.1 c-0.52 1.18 -1.9 1.94 -3.62 1.94 l-0.02 0 c-1.38 0 -2.64 -0.58 -3.58 -1.5 l1.34 -1.34 c0.56 0.72 1.36 1.08 2.24 1.08 c0.98 0 1.8 -0.36 2.02 -0.88 c0.14 -0.36 0.02 -0.74 0.02 -0.78 c-0.24 -0.6 -1.12 -0.72 -2.12 -0.94 c-1.34 -0.3 -2.68 -0.64 -3.2 -2.04 c-0.26 -0.72 -0.18 -1.56 0.18 -2.26 c0.82 -1.54 2.86 -1.6 3.1 -1.6 c1.38 0 2.68 0.52 3.6 1.46 l-1.34 1.34 c-0.56 -0.72 -1.38 -1.04 -2.26 -1.04 c-0.02 0 -1.2 0.02 -1.54 0.68 c-0.12 0.2 -0.18 0.54 -0.08 0.82 c0.2 0.56 1.1 0.74 2.06 0.96 c1.3 0.3 2.72 0.6 3.24 2 z M88.94 16.16 c0.04 0.12 0.38 1.1 -0.04 2.1 c-0.52 1.18 -1.9 1.94 -3.62 1.94 l-0.02 0 c-1.38 0 -2.64 -0.58 -3.58 -1.5 l1.34 -1.34 c0.56 0.72 1.36 1.08 2.24 1.08 c0.98 0 1.8 -0.36 2.02 -0.88 c0.14 -0.36 0.02 -0.74 0.02 -0.78 c-0.24 -0.6 -1.12 -0.72 -2.12 -0.94 c-1.34 -0.3 -2.68 -0.64 -3.2 -2.04 c-0.26 -0.72 -0.18 -1.56 0.18 -2.26 c0.82 -1.54 2.86 -1.6 3.1 -1.6 c1.38 0 2.68 0.52 3.6 1.46 l-1.34 1.34 c-0.56 -0.72 -1.38 -1.04 -2.26 -1.04 c-0.02 0 -1.2 0.02 -1.54 0.68 c-0.12 0.2 -0.18 0.54 -0.08 0.82 c0.2 0.56 1.1 0.74 2.06 0.96 c1.3 0.3 2.72 0.6 3.24 2 z M100.72 15.08 l0 0.74 l-7.78 0 c0 1.82 1.74 2.7 3.02 2.7 c0.94 0 1.98 -0.5 2.54 -1.3 l1.42 1.28 c-0.66 0.9 -1.74 1.7 -3.96 1.7 c-3.2 0 -5.16 -2.18 -5.16 -5.12 s1.9 -5.14 4.96 -5.14 s4.46 1.7 4.88 4.18 c0.06 0.32 0.08 0.64 0.08 0.96 z M92.98 14.120000000000001 l5.58 0 c0 -1.6 -1.28 -2.48 -2.8 -2.48 s-2.78 1.02 -2.78 2.48 z M109.66000000000001 16.16 c0.04 0.12 0.38 1.1 -0.04 2.1 c-0.52 1.18 -1.9 1.94 -3.62 1.94 l-0.02 0 c-1.38 0 -2.64 -0.58 -3.58 -1.5 l1.34 -1.34 c0.56 0.72 1.36 1.08 2.24 1.08 c0.98 0 1.8 -0.36 2.02 -0.88 c0.14 -0.36 0.02 -0.74 0.02 -0.78 c-0.24 -0.6 -1.12 -0.72 -2.12 -0.94 c-1.34 -0.3 -2.68 -0.64 -3.2 -2.04 c-0.26 -0.72 -0.18 -1.56 0.18 -2.26 c0.82 -1.54 2.86 -1.6 3.1 -1.6 c1.38 0 2.68 0.52 3.6 1.46 l-1.34 1.34 c-0.56 -0.72 -1.38 -1.04 -2.26 -1.04 c-0.02 0 -1.2 0.02 -1.54 0.68 c-0.12 0.2 -0.18 0.54 -0.08 0.82 c0.2 0.56 1.1 0.74 2.06 0.96 c1.3 0.3 2.72 0.6 3.24 2 z M119.06000000000002 16.16 c0.04 0.12 0.38 1.1 -0.04 2.1 c-0.52 1.18 -1.9 1.94 -3.62 1.94 l-0.02 0 c-1.38 0 -2.64 -0.58 -3.58 -1.5 l1.34 -1.34 c0.56 0.72 1.36 1.08 2.24 1.08 c0.98 0 1.8 -0.36 2.02 -0.88 c0.14 -0.36 0.02 -0.74 0.02 -0.78 c-0.24 -0.6 -1.12 -0.72 -2.12 -0.94 c-1.34 -0.3 -2.68 -0.64 -3.2 -2.04 c-0.26 -0.72 -0.18 -1.56 0.18 -2.26 c0.82 -1.54 2.86 -1.6 3.1 -1.6 c1.38 0 2.68 0.52 3.6 1.46 l-1.34 1.34 c-0.56 -0.72 -1.38 -1.04 -2.26 -1.04 c-0.02 0 -1.2 0.02 -1.54 0.68 c-0.12 0.2 -0.18 0.54 -0.08 0.82 c0.2 0.56 1.1 0.74 2.06 0.96 c1.3 0.3 2.72 0.6 3.24 2 z M130.40000000000003 14.3 l0 5.7 l-2.08 0 l0.02 -0.08 l0 -5.42 c0 -2 -0.52 -2.88 -2.22 -2.88 c-1.92 0 -2.6 1.34 -2.6 3.08 l0 5.3 l-2.06 0 l0 -9.88 l2.06 0 l0 1.6 c0.28 -0.88 1.42 -1.68 2.6 -1.76 c1.94 -0.14 3.32 0.5 3.94 2.1 c0.42 -1.36 1.76 -2.02 2.92 -2.1 c2.68 -0.2 4.28 1.1 4.28 4.34 l0 5.7 l-2.06 0 l0 -5.5 c0 -2 -0.52 -2.88 -2.22 -2.88 c-1.72 0 -2.44 1.08 -2.58 2.68 z M148.86000000000004 15.08 l0 0.74 l-7.78 0 c0 1.82 1.74 2.7 3.02 2.7 c0.94 0 1.98 -0.5 2.54 -1.3 l1.42 1.28 c-0.66 0.9 -1.74 1.7 -3.96 1.7 c-3.2 0 -5.16 -2.18 -5.16 -5.12 s1.9 -5.14 4.96 -5.14 s4.46 1.7 4.88 4.18 c0.06 0.32 0.08 0.64 0.08 0.96 z M141.12000000000003 14.120000000000001 l5.58 0 c0 -1.6 -1.28 -2.48 -2.8 -2.48 s-2.78 1.02 -2.78 2.48 z M160.00000000000003 14.3 l0 5.7 l-2.06 0 l0 -5.5 c0 -2 -0.62 -2.88 -2.32 -2.88 c-1.92 0 -2.7 1.34 -2.7 3.08 l0 5.3 l-2.06 0 l0 -9.88 l2.06 0 l0 1.6 c0.28 -0.88 1.52 -1.68 2.7 -1.76 c2.68 -0.2 4.38 1.1 4.38 4.34 z M166.54000000000002 18.36 c0.64 0.26 1.14 0.08 1.44 -0.06 l0 1.6 c-0.26 0.16 -0.64 0.3 -1.18 0.3 c-1.18 0 -2.22 -0.38 -2.86 -1.42 c-0.6 -1 -0.6 -1.54 -0.6 -3.1 l0 -3.88 l-1.2 0 l0 -1.68 l1.2 0 l0 -3.12 l2.06 0 l0 3.12 l2.58 0 l0 1.68 l-2.58 0 l0 3.88 c0 1.64 0.16 2.24 1.14 2.68 z M177.32 16.16 c0.04 0.12 0.38 1.1 -0.04 2.1 c-0.52 1.18 -1.9 1.94 -3.62 1.94 l-0.02 0 c-1.38 0 -2.64 -0.58 -3.58 -1.5 l1.34 -1.34 c0.56 0.72 1.36 1.08 2.24 1.08 c0.98 0 1.8 -0.36 2.02 -0.88 c0.14 -0.36 0.02 -0.74 0.02 -0.78 c-0.24 -0.6 -1.12 -0.72 -2.12 -0.94 c-1.34 -0.3 -2.68 -0.64 -3.2 -2.04 c-0.26 -0.72 -0.18 -1.56 0.18 -2.26 c0.82 -1.54 2.86 -1.6 3.1 -1.6 c1.38 0 2.68 0.52 3.6 1.46 l-1.34 1.34 c-0.56 -0.72 -1.38 -1.04 -2.26 -1.04 c-0.02 0 -1.2 0.02 -1.54 0.68 c-0.12 0.2 -0.18 0.54 -0.08 0.82 c0.2 0.56 1.1 0.74 2.06 0.96 c1.3 0.3 2.72 0.6 3.24 2 z"></path>
    </g>
</svg>
